<svg aria-hidden="true" style="position: absolute; width: 0; height: 0; overflow: hidden;" version="1.1" xmlns="http://www.w3.org/2000/svg" xmlns:xlink="http://www.w3.org/1999/xlink">
<defs>
<symbol id="icon-volume" viewBox="0 0 36 32">
<path d="M23.67 10.583l-0.99 2.019c0.947 0.812 1.547 2.017 1.547 3.361 0 1.482-0.336 2.822-1.453 3.626l0.957 1.707c1.461-1.311 2.381-3.213 2.381-5.331-0.001-2.145-0.946-4.071-2.442-5.382zM31.018 3.513l-1.393 1.69c2.598 2.836 4.242 6.615 4.242 10.764 0 4.142-1.641 7.916-4.23 10.751l1.391 1.725c2.963-3.336 4.758-7.648 4.758-12.476-0.001-4.815-1.819-9.12-4.768-12.454zM27.322 6.966l-1.24 1.783c1.842 1.85 3.010 4.4 3.010 7.217 0 2.874-1.215 5.469-3.123 7.329l1.289 1.711c2.305-2.354 3.693-5.484 3.693-9.039 0-3.489-1.398-6.658-3.629-9.001zM0 12.007v8.090c0 1.031 0.896 2.354 2 2.354h6.027v-12.939h-6.027c-1.104 0-2 1.465-2 2.495zM17.341 3.619l-8.381 5.777v13.25l8.381 5.84c1.104 0 2.688-0.836 2.688-1.867v-21.133c0-1.031-1.584-1.867-2.688-1.867z"></path>
</symbol>
<symbol id="icon-volume1" viewBox="0 0 32 32">
<path d="M28.715 15.936l2.24 2.242c0.146 0.145 0.146 0.381 0 0.527l-0.791 0.791c-0.145 0.145-0.381 0.145-0.527 0l-2.24-2.242-2.242 2.242c-0.146 0.145-0.381 0.145-0.527 0l-0.791-0.791c-0.145-0.146-0.145-0.383 0-0.527l2.242-2.242-2.242-2.242c-0.145-0.146-0.145-0.381 0-0.527l0.791-0.791c0.146-0.146 0.382-0.146 0.527 0l2.242 2.241 2.24-2.241c0.146-0.146 0.383-0.146 0.527 0l0.791 0.791c0.146 0.146 0.146 0.382 0 0.527l-2.24 2.242zM18.275 28.434l-8.379-5.84v-13.251l8.379-5.777c1.105 0 2.689 0.836 2.689 1.867v21.133c0.001 1.032-1.583 1.868-2.689 1.868zM0.936 20.107v-8.153c0-1.030 0.896-2.495 2-2.495h6.027v13.001h-6.027c-1.105 0.001-2-1.321-2-2.353z"></path>
</symbol>
<symbol id="icon-media-pause" viewBox="0 0 24 24">
<path d="M8 6c-1.104 0-2 0.896-2 2v8c0 1.104 0.896 2 2 2s2-0.896 2-2v-8c0-1.104-0.896-2-2-2z"></path>
<path d="M15 6c-1.104 0-2 0.896-2 2v8c0 1.104 0.896 2 2 2s2-0.896 2-2v-8c0-1.104-0.896-2-2-2z"></path>
</symbol>
<symbol id="icon-media-rewind" viewBox="0 0 24 24">
<path d="M10.2 6.4c-0.488 0-0.931 0.197-1.253 0.512-2.381 2.315-5.947 5.789-5.947 5.789s3.566 3.473 5.944 5.789c0.326 0.315 0.768 0.51 1.256 0.51 0.994 0 1.8-0.805 1.8-1.799v-9c0-0.994-0.806-1.801-1.8-1.801z"></path>
<path d="M19.2 6.4c-0.488 0-0.931 0.197-1.253 0.512-2.381 2.315-5.947 5.789-5.947 5.789s3.566 3.473 5.944 5.789c0.326 0.315 0.768 0.51 1.256 0.51 0.994 0 1.8-0.805 1.8-1.799v-9c0-0.994-0.806-1.801-1.8-1.801z"></path>
</symbol>
<symbol id="icon-media-stop" viewBox="0 0 24 24">
<path d="M16 6h-8c-1.1 0-2 0.9-2 2v8c0 1.1 0.9 2 2 2h8c1.1 0 2-0.9 2-2v-8c0-1.1-0.9-2-2-2z"></path>
</symbol>
<symbol id="icon-media-play" viewBox="0 0 24 24">
<path d="M10.396 18.433c2.641-2.574 6.604-6.433 6.604-6.433s-3.963-3.859-6.604-6.433c-0.363-0.349-0.853-0.567-1.396-0.567-1.104 0-2 0.896-2 2v10c0 1.104 0.896 2 2 2 0.543 0 1.033-0.218 1.396-0.567z"></path>
</symbol>
<symbol id="icon-media-fast-forward" viewBox="0 0 24 24">
<path d="M15.053 6.912c-0.324-0.314-0.765-0.512-1.253-0.512-0.994 0-1.8 0.807-1.8 1.801v9c0 0.994 0.806 1.799 1.8 1.799 0.488 0 0.93-0.195 1.253-0.512 2.381-2.314 5.947-5.787 5.947-5.787s-3.566-3.474-5.947-5.789z"></path>
<path d="M6.053 6.912c-0.324-0.314-0.765-0.512-1.253-0.512-0.994 0-1.8 0.807-1.8 1.801v9c0 0.994 0.806 1.799 1.8 1.799 0.488 0 0.93-0.195 1.253-0.512 2.381-2.314 5.947-5.787 5.947-5.787s-3.566-3.474-5.947-5.789z"></path>
</symbol>
<symbol id="icon-slow_motion_video" viewBox="0 0 24 24">
<path d="M21.984 12q0 3.844-2.578 6.703t-6.375 3.234v-2.016q2.953-0.375 4.969-2.648t2.016-5.273-2.016-5.273-4.969-2.648v-2.016q3.797 0.375 6.375 3.234t2.578 6.703zM5.672 19.734l1.406-1.406q1.688 1.313 3.938 1.594v2.016q-1.266-0.141-2.836-0.797t-2.508-1.406zM4.078 12.984q0.234 2.203 1.594 3.891l-1.406 1.453q-1.922-2.391-2.203-5.344h2.016zM5.672 7.078q-1.313 1.734-1.594 3.938h-2.016q0.141-1.266 0.797-2.836t1.406-2.508zM11.016 4.078q-2.25 0.281-3.938 1.594l-1.406-1.406q2.391-1.922 5.344-2.203v2.016zM13.031 9.797l2.953 2.203q-2.953 2.203-6 4.5z"></path>
</symbol>
<symbol id="icon-fullscreen" viewBox="0 0 24 24">
<path d="M14.016 5.016h4.969v4.969h-1.969v-3h-3v-1.969zM17.016 17.016v-3h1.969v4.969h-4.969v-1.969h3zM5.016 9.984v-4.969h4.969v1.969h-3v3h-1.969zM6.984 14.016v3h3v1.969h-4.969v-4.969h1.969z"></path>
</symbol>
<symbol id="icon-fullscreen_exit" viewBox="0 0 24 24">
<path d="M15.984 8.016h3v1.969h-4.969v-4.969h1.969v3zM14.016 18.984v-4.969h4.969v1.969h-3v3h-1.969zM8.016 8.016v-3h1.969v4.969h-4.969v-1.969h3zM5.016 15.984v-1.969h4.969v4.969h-1.969v-3h-3z"></path>
</symbol>
<symbol id="icon-picture_in_picture_alt" viewBox="0 0 24 24">
<path d="M21 19.031v-14.063h-18v14.063h18zM23.016 18.984q0 0.797-0.609 1.406t-1.406 0.609h-18q-0.797 0-1.406-0.609t-0.609-1.406v-14.016q0-0.797 0.609-1.383t1.406-0.586h18q0.797 0 1.406 0.586t0.609 1.383v14.016zM18.984 11.016v6h-7.969v-6h7.969z"></path>
</symbol>
</defs>
</svg>
