<svg aria-hidden="true" style="position: absolute; width: 0; height: 0; overflow: hidden;" version="1.1" xmlns="http://www.w3.org/2000/svg" xmlns:xlink="http://www.w3.org/1999/xlink">
<defs>
<symbol id="icon-brightness-up" viewBox="0 0 20 20">
<path d="M10 14c-2.209 0-4-1.791-4-4s1.791-4 4-4v0c2.209 0 4 1.791 4 4s-1.791 4-4 4v0zM9 1c0-0.552 0.448-1 1-1s1 0.448 1 1v0 2c0 0.552-0.448 1-1 1s-1-0.448-1-1v0-2zM15.65 2.94c0.184-0.215 0.456-0.35 0.76-0.35 0.552 0 1 0.448 1 1 0 0.303-0.135 0.575-0.348 0.758l-0.001 0.001-1.4 1.4c-0.184 0.215-0.456 0.35-0.76 0.35-0.552 0-1-0.448-1-1 0-0.303 0.135-0.575 0.348-0.758l0.001-0.001 1.4-1.4zM18.99 9c0.552 0 1 0.448 1 1s-0.448 1-1 1v0h-1.98c-0.552 0-1-0.448-1-1s0.448-1 1-1v0h1.98zM17.060 15.65c0.215 0.184 0.35 0.456 0.35 0.76 0 0.552-0.448 1-1 1-0.303 0-0.575-0.135-0.758-0.348l-0.001-0.001-1.4-1.4c-0.215-0.184-0.35-0.456-0.35-0.76 0-0.552 0.448-1 1-1 0.303 0 0.575 0.135 0.758 0.348l0.001 0.001 1.4 1.4zM11 18.99c0 0.552-0.448 1-1 1s-1-0.448-1-1v0-1.98c0-0.552 0.448-1 1-1s1 0.448 1 1v0 1.98zM4.35 17.060c-0.184 0.215-0.456 0.35-0.76 0.35-0.552 0-1-0.448-1-1 0-0.303 0.135-0.575 0.348-0.758l0.001-0.001 1.4-1.4c0.184-0.215 0.456-0.35 0.76-0.35 0.552 0 1 0.448 1 1 0 0.303-0.135 0.575-0.348 0.758l-0.001 0.001-1.4 1.4zM1.010 11c-0.552 0-1-0.448-1-1s0.448-1 1-1v0h1.98c0.552 0 1 0.448 1 1s-0.448 1-1 1v0h-1.98zM2.94 4.35c-0.215-0.184-0.35-0.456-0.35-0.76 0-0.552 0.448-1 1-1 0.303 0 0.575 0.135 0.758 0.348l0.001 0.001 1.4 1.4c0.215 0.184 0.35 0.456 0.35 0.76 0 0.552-0.448 1-1 1-0.303 0-0.575-0.135-0.758-0.348l-0.001-0.001-1.4-1.4z"></path>
</symbol>
<symbol id="icon-check" viewBox="0 0 24 24">
<path d="M19.293 5.293l-10.293 10.293-4.293-4.293c-0.391-0.391-1.024-0.391-1.414 0s-0.391 1.024 0 1.414l5 5c0.391 0.391 1.024 0.391 1.414 0l11-11c0.391-0.391 0.391-1.024 0-1.414s-1.024-0.391-1.414 0z"></path>
</symbol>
</defs>
</svg>
