<svg aria-hidden="true" style="position: absolute; width: 0; height: 0; overflow: hidden;" version="1.1" xmlns="http://www.w3.org/2000/svg" xmlns:xlink="http://www.w3.org/1999/xlink">
<defs>
<symbol id="icon-search" viewBox="0 0 20 20">
<path d="M12.9 14.32c-1.34 1.049-3.050 1.682-4.908 1.682-4.418 0-8-3.582-8-8s3.582-8 8-8c4.418 0 8 3.582 8 8 0 1.858-0.633 3.567-1.695 4.925l0.013-0.018 5.35 5.33-1.42 1.42-5.33-5.34zM8 14c3.314 0 6-2.686 6-6s-2.686-6-6-6v0c-3.314 0-6 2.686-6 6s2.686 6 6 6v0z"></path>
</symbol>
<symbol id="icon-shuffle" viewBox="0 0 20 20">
<path d="M6.59 12.83l-2.19 2.17c-0.58 0.58-1.59 1-2.4 1h-2v-2h2c0.29 0 0.8-0.2 1-0.41l2.17-2.18 1.42 1.42zM16 4v-3l4 4-4 4v-3h-2c-0.29 0-0.8 0.2-1 0.41l-2.17 2.18-1.43-1.42 2.2-2.17c0.58-0.58 1.59-1 2.41-1h2zM16 14v-3l4 4-4 4v-3h-2c-0.82 0-1.83-0.42-2.41-1l-8.6-8.59c-0.19-0.2-0.69-0.41-0.99-0.41h-2v-2h2c0.82 0 1.83 0.42 2.41 1l8.6 8.59c0.2 0.2 0.7 0.41 0.99 0.41h2z"></path>
</symbol>
</defs>
</svg>
